<svg id="Layer_1" data-name="Layer 1" xmlns="http://www.w3.org/2000/svg" viewBox="0 0 316.025 161.424">
  <defs>
    <style>
      .cls-1 {
        fill: #8ec543;
      }

      .cls-2 {
        fill: #330f39;
      }

      .cls-3 {
        fill: #fff;
        stroke: #330f39;
        stroke-miterlimit: 10;
        stroke-width: 2px;
      }
    </style>
  </defs>
  <title>0685db75-9dff-46a4-8e6a-ece025a866d8</title>
  <g>
    <path class="cls-1" d="M37.025,33.228a7.276,7.276,0,0,0-.168,1.554c0,2.059,1.092,3.15,3.361,3.15a5.741,5.741,0,0,0,3.571-1.218l.63,1.555a7.554,7.554,0,0,1-4.705,1.47c-3.15,0-5-1.723-5-4.663a7.857,7.857,0,0,1,.168-1.68L37.7,19.45H33.623l.336-1.807h4.075L39,12.854h2.1l-.966,4.789h6.973l-.336,1.807H39.8Z"/>
    <path class="cls-1" d="M72.351,24.49a12.221,12.221,0,0,1-.252,2.395L69.578,39.571h-2.1L70,26.884a9.368,9.368,0,0,0,.21-2.1c0-3.4-2.059-5.419-6.175-5.419-5,0-8.527,2.815-9.62,8.276l-2.395,11.93h-2.1L56.136,8.4h2.1L55.59,21.717a10.535,10.535,0,0,1,8.99-4.242C69.62,17.475,72.351,20.164,72.351,24.49Z"/>
    <path class="cls-1" d="M80.032,29.069c-.042.462-.084.924-.084,1.387,0,4.746,2.772,7.393,8.107,7.393a10.148,10.148,0,0,0,7.52-2.94l.966,1.471a11.835,11.835,0,0,1-8.653,3.36c-6.217,0-10-3.444-10-9.2,0-7.478,5.083-13.064,11.972-13.064,5.713,0,9.326,3.444,9.326,9.157a14.463,14.463,0,0,1-.252,2.437Zm.252-1.639H97.171a9.491,9.491,0,0,0,.042-1.092c0-4.537-3.024-7.058-7.394-7.058C84.989,19.281,81.334,22.558,80.284,27.43Z"/>
  </g>
  <g>
    <path class="cls-2" d="M20.825,57.2l-7.311.046,5.867,3.483v2.384L13.766,66.6h7.059v4.928H4.782V67.079l8.548-5.226L4.782,56.765V52.319l16.043-.046Z"/>
    <path class="cls-2" d="M16.745,36.322h4.08V49.661H4.782V36.62h4.08v7.724H10.74V37.56h3.9v6.784h2.108Z"/>
    <path class="cls-2" d="M16.745,20.9h4.08V34.237H4.782V21.2h4.08v7.724H10.74V22.136h3.9v6.784h2.108Z"/>
    <path class="cls-2" d="M8.976,15.329v4.7H4.782V5.222H8.976v4.7H20.825v5.409Z"/>
  </g>
  <g>
    <path class="cls-2" d="M33.009,45.525H22.991V36.594h31.57v8.931H44.543V70.757H33.009Z"/>
    <path class="cls-2" d="M85.982,62.07v8.687H57.539V36.594H85.346v8.687H68.877v4H83.343v8.3H68.877v4.49Z"/>
    <path class="cls-2" d="M113.737,64.8h-13l-2.3,5.954H86.712l14.954-34.163H113l14.954,34.163H116.033Zm-3.176-8.3-3.323-8.589-3.323,8.589Z"/>
    <path class="cls-2" d="M160.356,70.757l-.1-15.568L152.83,67.682h-5.082l-7.429-11.957V70.757H129.812V36.594h9.481l11.142,18.2,10.849-18.2h9.481l.1,34.163Z"/>
  </g>
  <path class="cls-3" d="M250.067,13.467v6.252h31.2V91.352h6.252V17.936h0a4.468,4.468,0,0,0-4.468-4.468Z"/>
  <path class="cls-3" d="M289.608,107.277v15.7H249.693a4.468,4.468,0,0,0-4.468,4.468v32.983h6.252v-31.2h38.131v20.719h6.252V107.277Z"/>
  <path class="cls-3" d="M180.6,122.973H161.139V105.684h-6.252v17.289H133.4a4.468,4.468,0,0,0-4.468,4.468v32.983h6.252v-31.2h43.632v31.2h6.252V127.441A4.468,4.468,0,0,0,180.6,122.973Z"/>
  <path class="cls-3" d="M69.182,122.973H48.709V105.684H42.457v17.289H21.984a4.468,4.468,0,0,0-4.468,4.468v32.983h6.252v-31.2H67.4v31.2H73.65V127.441A4.468,4.468,0,0,0,69.182,122.973Z"/>
  <rect class="cls-3" x="65.513" y="99.229" width="226.396" height="6.252"/>
  <rect class="cls-3" x="253.76" y="87.953" width="61.266" height="28.804" rx="12" ry="12"/>
  <rect class="cls-3" x="270.442" y="139.463" width="44.583" height="20.961" rx="10.48" ry="10.48"/>
  <rect class="cls-3" x="223.836" y="139.463" width="44.583" height="20.961" rx="10.48" ry="10.48"/>
  <rect class="cls-3" x="159.024" y="139.463" width="44.583" height="20.961" rx="10.48" ry="10.48"/>
  <rect class="cls-3" x="112.418" y="139.463" width="44.583" height="20.961" rx="10.48" ry="10.48"/>
  <rect class="cls-3" x="47.607" y="139.463" width="44.583" height="20.961" rx="10.48" ry="10.48"/>
  <rect class="cls-3" x="1" y="139.463" width="44.583" height="20.961" rx="10.48" ry="10.48"/>
  <rect class="cls-3" x="127.38" y="87.953" width="61.266" height="28.804" rx="12" ry="12"/>
  <rect class="cls-3" x="14.95" y="87.953" width="61.266" height="28.804" rx="12" ry="12"/>
  <rect class="cls-3" x="190.669" y="1" width="66.333" height="31.187" rx="12" ry="12"/>
</svg>
